<?xml version="1.0" encoding="iso-8859-1"?>
<!-- Generator: Adobe Illustrator 19.0.0, SVG Export Plug-In . SVG Version: 6.00 Build 0)  -->
<svg xmlns="http://www.w3.org/2000/svg" xmlns:xlink="http://www.w3.org/1999/xlink" version="1.1" id="Layer_1" x="0px" y="0px" viewBox="0 0 512 512" style="enable-background:new 0 0 512 512;" xml:space="preserve" width="512px" height="512px">
<g>
	<g>
		<g>
			<path d="M486.4,0H25.6C11.486,0,0,11.486,0,25.6v51.2v409.6C0,500.514,11.486,512,25.6,512h460.8c14.114,0,25.6-11.486,25.6-25.6     V76.8V25.6C512,11.486,500.514,0,486.4,0z M17.067,25.6c0-4.71,3.831-8.533,8.533-8.533h460.8c4.71,0,8.533,3.823,8.533,8.533     v42.667H17.067V25.6z M494.933,486.4c0,4.71-3.823,8.533-8.533,8.533H25.6c-4.702,0-8.533-3.823-8.533-8.533V85.333h477.867     V486.4z" fill="#07cb79"/>
			<path d="M42.667,34.133c-4.71,0-8.533,3.814-8.533,8.533s3.823,8.533,8.533,8.533c4.71,0,8.533-3.814,8.533-8.533     S47.377,34.133,42.667,34.133z" fill="#07cb79"/>
			<path d="M76.8,34.133c-4.71,0-8.533,3.814-8.533,8.533S72.09,51.2,76.8,51.2s8.533-3.814,8.533-8.533S81.51,34.133,76.8,34.133z" fill="#07cb79"/>
			<path d="M110.933,34.133c-4.71,0-8.533,3.814-8.533,8.533s3.823,8.533,8.533,8.533s8.533-3.814,8.533-8.533     S115.644,34.133,110.933,34.133z" fill="#07cb79"/>
			<path d="M51.2,247.467h119.467c4.71,0,8.533-3.814,8.533-8.533V119.467c0-4.719-3.823-8.533-8.533-8.533H51.2     c-4.71,0-8.533,3.814-8.533,8.533v119.467C42.667,243.652,46.49,247.467,51.2,247.467z M59.733,128h102.4v102.4h-102.4V128z" fill="#07cb79"/>
			<path d="M358.4,307.2H153.6c-4.71,0-8.533,3.814-8.533,8.533v153.6c0,4.719,3.823,8.533,8.533,8.533h204.8     c4.71,0,8.533-3.814,8.533-8.533v-153.6C366.933,311.014,363.11,307.2,358.4,307.2z M349.867,460.8H162.133V324.267h187.733     V460.8z" fill="#07cb79"/>
			<path d="M206.507,431.787c1.681,2.236,4.241,3.413,6.835,3.413c1.775,0,3.576-0.555,5.112-1.707     c3.772-2.825,4.531-8.175,1.707-11.947l-21.76-29.013l21.76-29.013c2.825-3.772,2.065-9.122-1.707-11.947     c-3.772-2.816-9.122-2.065-11.947,1.707l-25.6,34.133c-2.278,3.038-2.278,7.202,0,10.24L206.507,431.787z" fill="#07cb79"/>
			<path d="M293.547,433.493c1.536,1.152,3.337,1.707,5.111,1.707c2.594,0,5.154-1.178,6.835-3.413l25.6-34.133     c2.278-3.038,2.278-7.202,0-10.24l-25.6-34.133c-2.816-3.772-8.158-4.523-11.947-1.707c-3.772,2.825-4.531,8.175-1.707,11.947     l21.76,29.013l-21.76,29.013C289.016,425.318,289.775,430.669,293.547,433.493z" fill="#07cb79"/>
			<path d="M235.763,443.128c1.041,0.418,2.108,0.606,3.166,0.606c3.388,0,6.588-2.022,7.927-5.367l34.133-85.333     c1.749-4.378-0.375-9.344-4.753-11.093c-4.395-1.766-9.344,0.375-11.093,4.762l-34.133,85.333     C229.261,436.412,231.386,441.378,235.763,443.128z" fill="#07cb79"/>
			<path d="M238.933,136.533H460.8c4.719,0,8.533-3.814,8.533-8.533s-3.814-8.533-8.533-8.533H238.933     c-4.71,0-8.533,3.814-8.533,8.533S234.223,136.533,238.933,136.533z" fill="#07cb79"/>
			<path d="M238.933,187.733H460.8c4.719,0,8.533-3.814,8.533-8.533s-3.814-8.533-8.533-8.533H238.933     c-4.71,0-8.533,3.814-8.533,8.533S234.223,187.733,238.933,187.733z" fill="#07cb79"/>
			<path d="M238.933,238.933H460.8c4.719,0,8.533-3.814,8.533-8.533s-3.814-8.533-8.533-8.533H238.933     c-4.71,0-8.533,3.814-8.533,8.533S234.223,238.933,238.933,238.933z" fill="#07cb79"/>
		</g>
	</g>
</g>
<g>
</g>
<g>
</g>
<g>
</g>
<g>
</g>
<g>
</g>
<g>
</g>
<g>
</g>
<g>
</g>
<g>
</g>
<g>
</g>
<g>
</g>
<g>
</g>
<g>
</g>
<g>
</g>
<g>
</g>
</svg>
