<?xml version="1.0" encoding="iso-8859-1"?>
<!-- Generator: Adobe Illustrator 18.1.1, SVG Export Plug-In . SVG Version: 6.00 Build 0)  -->
<svg xmlns="http://www.w3.org/2000/svg" xmlns:xlink="http://www.w3.org/1999/xlink" version="1.1" id="Capa_1" x="0px" y="0px" viewBox="0 0 60.121 60.121" style="enable-background:new 0 0 60.121 60.121;" xml:space="preserve" width="512px" height="512px">
<g>
	<g>
		<circle cx="18.674" cy="5.794" r="5.794" fill="#28c710"/>
		<path d="M50.845,35.826c-0.256-6.707-1.11-13.37-2.396-19.953c-1.014-5.185-7.492-4.536-9.478-0.8    c-0.097,0.124-0.188,0.254-0.271,0.4c-2.31,4.077-5.138,7.728-8.638,10.794c-3.499-3.065-6.327-6.716-8.639-10.793    c-0.094-0.167-0.198-0.313-0.308-0.449c-2.022-3.692-8.427-4.328-9.434,0.822c-1.283,6.57-2.147,13.212-2.404,19.902    c-0.046,1.215,0.263,2.209,0.796,2.984c-0.054,0.23-0.087,0.479-0.087,0.748c0,5.895,0,11.791,0,17.688    c0,3.935,6.099,3.935,6.099,0c0-5.562,0-11.127,0-16.688c1.86-0.601,3.4-2.149,3.496-4.655c0.139-3.638,0.464-7.24,0.961-10.825    c1.976,2.451,4.187,4.691,6.648,6.741c0.49,1.221,1.6,2.119,2.871,1.891c1.271,0.229,2.38-0.67,2.871-1.891    c2.461-2.05,4.672-4.29,6.647-6.742c0.496,3.561,0.822,7.137,0.963,10.75c0.096,2.512,1.633,4.08,3.494,4.703    c0,5.571,0,11.144,0,16.717c0,3.935,6.099,3.935,6.099,0c0-5.896,0-11.793,0-17.688c0-0.255-0.026-0.49-0.074-0.713    C50.587,38.005,50.892,37.028,50.845,35.826z" fill="#28c710"/>
		<circle cx="41.45" cy="5.794" r="5.794" fill="#28c710"/>
	</g>
</g>
<g>
</g>
<g>
</g>
<g>
</g>
<g>
</g>
<g>
</g>
<g>
</g>
<g>
</g>
<g>
</g>
<g>
</g>
<g>
</g>
<g>
</g>
<g>
</g>
<g>
</g>
<g>
</g>
<g>
</g>
</svg>
